# xmcd
#
# Track frame offsets:
#	150
#	14603
#	25611
#	38286
#	49574
#	63907
#	75084
#	86868
#	99648
#	110851
#	124473
#	135764
#	146630
#	159853
#
# Disc length: 2297 seconds
#
# Revision: 1
# Processed by: cddbd v1.5.1PL2 Copyright (c) Steve Scherf et al.
# Submitted via: audiograbber 1.83.01
#
DISCID=a608f70e
DTITLE=Diverse - Goldene Trompeten
DYEAR=1900
DGENRE=
TTITLE0=Schwarze Augen
TTITLE1=Lara's Theme
TTITLE2=Stenka Rasin
TTITLE3=Abendglocken
TTITLE4=Habe Mitleid
TTITLE5=Mitternacht Moskau
TTITLE6=Mitternachtsblues
TTITLE7=Ein Schiff wird kommen
TTITLE8=Apachen Blues
TTITLE9=Jenny
TTITLE10=Das Ende der Liebe
TTITLE11=Ein ganzes Leben lang
TTITLE12=Reach For The Stars
TTITLE13=Monte Carlo Blues
EXTD=Schallplatte
EXTT0=
EXTT1=
EXTT2=
EXTT3=
EXTT4=
EXTT5=
EXTT6=
EXTT7=
EXTT8=
EXTT9=
EXTT10=
EXTT11=
EXTT12=
EXTT13=
PLAYORDER=
